<svg xmlns="http://www.w3.org/2000/svg" viewBox="0 0 1354 400.1" width="65pt" height="25.604"><path d="M51.2 185.1c0 33.1 26.9 60 60 60 21.2 0 39.8-11 50.4-27.5h54.7c-13.9 44.9-55.7 77.5-105.1 77.5-60.8 0-110-49.3-110-110s49.3-110 110-110c49.4 0 91.3 32.6 105.1 77.5h-54.7c-10.7-16.5-29.3-27.5-50.4-27.5-33.2 0-60 26.8-60 60zM251.7.4h50v20c0 16.6-13.4 30-30 30h-20V.4zm30 80h20v210h-50v-180c0-16.6 13.5-30 30-30zm225.9-70.3v82.8c-17.3-11.3-37.9-17.8-60-17.8-60.8 0-110 49.3-110 110s49.3 110 110 110c22.1 0 42.7-6.5 60-17.8v12.8h50V5.1l-50 5zm-60 235c-33.1 0-60-26.9-60-60s26.9-60 60-60 60 26.9 60 60-26.9 60-60 60zM778.8 83.5l-16.2 1.6v7.8c-17.3-11.3-37.9-17.8-60-17.8-60.8 0-110 49.3-110 110 0 19 4.8 36.9 13.3 52.5 3.9 7.2 8.6 13.9 14 20 20.1 23 49.7 37.5 82.7 37.5 21.6 0 41.8-6.2 58.8-17 .4-.3.8-.5 1.2-.8v12.8c0 33.1-26.9 60-60 60-21.2 0-39.8-11-50.4-27.5h-54.7c13.9 44.9 55.7 77.5 105.1 77.5 60.8 0 110-49.3 110-110v-210l-33.8 3.4zm-17.4 113.6c-3.5 17.4-14.6 32.1-29.7 40.5-8.6 4.8-18.5 7.5-29.1 7.5s-20.5-2.7-29.1-7.5c-15.1-8.4-26.2-23.1-29.7-40.5-.8-3.9-1.2-7.9-1.2-12 0-33.1 26.9-60 60-60s60 26.9 60 60c0 4.1-.4 8.1-1.2 12zM847.6.1h50v20c0 16.6-13.4 30-30 30h-20V.1zm30 80h20v210h-50v-180c0-16.6 13.4-30 30-30zm105 0h36.9v50h-36.9v81.8c0 15.6 12.6 28.2 28.2 28.2h8.7v50h-9.4c-6.4 0-12.7-.8-18.6-2.3-3-.8-6-1.7-8.9-2.8-29.2-11.1-50-39.4-50-72.5V10.1l50-5v75zm242.3 16.5v7.8c-17.3-11.3-37.9-17.8-60-17.8-60.8 0-110 49.2-110 110s49.3 110 110 110c22.1 0 42.8-6.5 60-17.8v12.8h50v-210l-50 5zm-60 160c-33.1 0-60-26.9-60-60s26.9-60 60-60 60 26.9 60 60-26.9 60-60 60zM1353.6 5.1v296.5h-50V10.1z"/></svg>