<svg width="45" height="45" fill="none" xmlns="http://www.w3.org/2000/svg"><g clip-path="url(#clip0_155_1509)"><path d="M44.856 18.947L37.65 7.958a.879.879 0 00-.735-.397H8.119a.879.879 0 00-.734.396L.168 18.912a.879.879 0 00.05 1.095l3.658 4.178a.879.879 0 101.322-1.158l-2.381-2.72h11.821l5.94 20.28-6.712-7.664a.879.879 0 10-1.322 1.158l9.298 10.617a.879.879 0 001.322 0l9.899-11.306a.879.879 0 10-1.322-1.158l-7.314 8.353 5.94-20.28h11.817l-5.466 6.242a.879.879 0 101.323 1.158l6.741-7.7c.26-.296.29-.73.074-1.06zM2.511 18.55l5.606-8.51 5.581 8.51H2.511zm7.235-9.231h11.13l-5.565 8.485L9.746 9.32zm12.757.724l5.578 8.507H16.924l5.579-8.507zm0 30.862L16.47 20.307h12.066l-6.033 20.598zm7.206-23.079l-5.58-8.507h11.159l-5.58 8.507zm1.627.724l5.579-8.507 5.579 8.507H31.336z" fill="#49B462"/><path d="M13.815 28.742a4.116 4.116 0 01-4.111-4.112.879.879 0 00-1.758 0 4.116 4.116 0 01-4.111 4.112.879.879 0 000 1.757 4.116 4.116 0 014.111 4.112.879.879 0 001.758 0 4.116 4.116 0 014.111-4.112.879.879 0 000-1.757zm-4.99 2.782a5.915 5.915 0 00-1.904-1.903 5.915 5.915 0 001.904-1.904 5.916 5.916 0 001.904 1.904 5.915 5.915 0 00-1.904 1.903zM44.121 3.518A2.64 2.64 0 0141.485.88a.879.879 0 00-1.758 0 2.64 2.64 0 01-2.636 2.637.879.879 0 000 1.757 2.64 2.64 0 012.636 2.637.879.879 0 001.758 0 2.64 2.64 0 012.636-2.637.879.879 0 000-1.757zm-3.515 1.76a4.434 4.434 0 00-.882-.882c.334-.25.631-.547.882-.881.25.334.548.63.881.881-.333.251-.63.548-.881.882z" fill="#F8DB3D"/><path d="M35.4 29.476a.882.882 0 00-1.242 0 .886.886 0 00-.258.621c0 .231.094.458.258.622.163.163.39.257.621.257a.885.885 0 00.621-.257.885.885 0 00.258-.622.885.885 0 00-.258-.621z" fill="#49B462"/></g><defs><clipPath id="clip0_155_1509"><path fill="#fff" d="M0 0h45v45H0z"/></clipPath></defs></svg>