<svg width="24" height="24" fill="none" xmlns="http://www.w3.org/2000/svg"><path d="M12 0C7.037 0 3 4.037 3 9c0 6.239 8.124 14.434 8.469 14.781a.753.753 0 001.062 0C12.876 23.435 21 15.239 21 9c0-4.963-4.037-9-9-9zm0 22.166C10.209 20.248 4.5 13.766 4.5 9c0-4.136 3.364-7.5 7.5-7.5s7.5 3.364 7.5 7.5c0 4.761-5.709 11.248-7.5 13.166z" fill="#49B462"/><path d="M12 4.5A4.505 4.505 0 007.5 9c0 2.481 2.019 4.5 4.5 4.5s4.5-2.019 4.5-4.5-2.019-4.5-4.5-4.5zm0 7.5c-1.655 0-3-1.345-3-3 0-1.654 1.345-3 3-3s3 1.346 3 3c0 1.655-1.345 3-3 3z" fill="#49B462"/></svg>