<svg width="16" height="16" fill="none" xmlns="http://www.w3.org/2000/svg"><path d="M7.997 15.118a.937.937 0 01-.617-.233 131.22 131.22 0 00-1.819-1.563h-.005c-1.613-1.373-3.003-2.558-3.971-3.731C.501 8.284 0 7.043 0 5.692c0-1.312.45-2.53 1.268-3.415A4.292 4.292 0 014.466.881c.923 0 1.768.295 2.513.868.379.29.718.645 1.018 1.062.3-.417.64-.773 1.018-1.062a4.044 4.044 0 012.514-.868c1.234 0 2.374.495 3.203 1.396C15.55 3.167 16 4.38 16 5.692c0 1.351-.506 2.592-1.585 3.899-.968 1.167-2.358 2.352-3.97 3.731a181.09 181.09 0 00-1.825 1.569.987.987 0 01-.623.227zM4.466 1.821a3.39 3.39 0 00-2.514 1.09C1.296 3.623.929 4.613.929 5.692c0 1.14.422 2.158 1.373 3.298.918 1.107 2.28 2.269 3.86 3.615h.006c.55.473 1.179 1 1.83 1.574.655-.573 1.278-1.107 1.834-1.574 1.58-1.346 2.942-2.508 3.86-3.615.951-1.146 1.374-2.163 1.374-3.298 0-1.079-.362-2.069-1.024-2.78a3.369 3.369 0 00-2.513-1.09c-.712 0-1.363.227-1.941.672-.512.395-.873.901-1.085 1.252a.581.581 0 01-.506.289.581.581 0 01-.506-.29c-.211-.35-.567-.856-1.084-1.25a3.085 3.085 0 00-1.941-.674z" fill="#fff"/><path d="M7.997 12.032a.495.495 0 01-.322-.122c-.34-.295-.662-.573-.951-.818-.84-.717-1.568-1.334-2.075-1.946-.567-.684-.828-1.33-.828-2.036 0-.684.233-1.318.662-1.785a2.263 2.263 0 011.674-.728c.483 0 .923.15 1.312.456.195.15.373.339.528.556a2.8 2.8 0 01.529-.556c.389-.3.828-.456 1.312-.456.645 0 1.24.256 1.674.728.428.462.662 1.096.662 1.785 0 .707-.261 1.352-.829 2.036-.506.612-1.234 1.229-2.074 1.946-.29.245-.612.523-.951.818a.495.495 0 01-.323.122zM6.151 5.086c-.506 0-.973.2-1.312.567-.345.373-.534.89-.534 1.452 0 .595.222 1.123.717 1.724.478.578 1.19 1.184 2.013 1.885.29.245.618.523.957.823.345-.3.667-.578.956-.823.823-.7 1.535-1.307 2.014-1.885.495-.595.717-1.129.717-1.724 0-.562-.19-1.079-.534-1.452a1.766 1.766 0 00-1.312-.567 1.61 1.61 0 00-1.013.35 2.423 2.423 0 00-.567.657.306.306 0 01-.267.15.306.306 0 01-.267-.15 2.407 2.407 0 00-.567-.657 1.547 1.547 0 00-1.001-.35z" fill="#F8DB3D" stroke="#F8DB3D" stroke-width=".712" stroke-miterlimit="10"/></svg>