<svg width="33" height="33" fill="none" xmlns="http://www.w3.org/2000/svg"><path d="M11 16.5a5.5 5.5 0 115.5 5.5 5.5 5.5 0 01-5.5-5.5zm-2.973 0a8.472 8.472 0 1016.946 0 8.472 8.472 0 10-16.946 0zm15.3-8.808a1.98 1.98 0 103.963-.001 1.98 1.98 0 00-3.962 0zM9.834 29.93c-1.608-.074-2.483-.342-3.064-.568-.77-.3-1.32-.657-1.898-1.234a5.1 5.1 0 01-1.234-1.897c-.226-.581-.494-1.455-.568-3.064-.08-1.74-.096-2.262-.096-6.668 0-4.406.018-4.927.096-6.668.074-1.609.343-2.482.568-3.064.3-.77.657-1.32 1.234-1.898A5.094 5.094 0 016.77 3.636c.581-.227 1.456-.495 3.064-.568 1.74-.08 2.262-.096 6.667-.096 4.406 0 4.927.017 6.668.096 1.609.073 2.482.343 3.064.568a5.11 5.11 0 011.898 1.234 5.12 5.12 0 011.234 1.898c.227.581.495 1.455.568 3.064.08 1.74.096 2.262.096 6.668 0 4.405-.016 4.927-.096 6.668-.073 1.609-.343 2.483-.568 3.064-.3.77-.657 1.32-1.234 1.897a5.122 5.122 0 01-1.898 1.234c-.581.226-1.455.494-3.064.568-1.74.08-2.262.095-6.668.095-4.405 0-4.927-.015-6.667-.095zM9.697.1C7.941.18 6.741.458 5.692.866A8.096 8.096 0 002.77 2.77 8.074 8.074 0 00.866 5.692C.458 6.742.18 7.941.1 9.697.019 11.457 0 12.02 0 16.5s.019 5.043.1 6.803c.08 1.756.358 2.956.766 4.005A8.068 8.068 0 002.77 30.23a8.092 8.092 0 002.922 1.904c1.05.407 2.249.686 4.005.766 1.761.08 2.322.1 6.803.1 4.482 0 5.043-.019 6.803-.1 1.756-.08 2.956-.358 4.005-.766a8.115 8.115 0 002.922-1.904 8.104 8.104 0 001.904-2.922c.407-1.05.687-2.249.766-4.005.08-1.761.099-2.322.099-6.803 0-4.48-.019-5.043-.099-6.803-.08-1.756-.358-2.956-.766-4.005A8.115 8.115 0 0030.23 2.77 8.093 8.093 0 0027.31.866C26.259.458 25.059.18 23.304.1 21.544.02 20.982 0 16.5 0s-5.043.019-6.804.1z" fill="url(#paint0_linear_401_281)"/><defs><linearGradient id="paint0_linear_401_281" x1="16.499" y1="0" x2="16.499" y2="33" gradientUnits="userSpaceOnUse"><stop stop-color="#49B462"/><stop offset="1" stop-color="#F8DB3D"/></linearGradient></defs></svg>