<svg version="1.1" id="Capa_1" xmlns="http://www.w3.org/2000/svg" x="0" y="0" viewBox="0 0 512 512" xml:space="preserve"><style>.st1{fill:#f8db3d}</style><path d="M496 224c-8.8 0-16 7.2-16 16v181.2l-128 51.2V304c0-8.8-7.2-16-16-16s-16 7.2-16 16v168.4l-128-51.2V167.6l74.1 29.7c8.1 3.3 17.5-.7 20.8-8.9 3.3-8.2-.7-17.5-8.9-20.8l-95.8-38.3-.3-.1c-3.8-1.5-8.1-1.5-11.9 0l-.3.1-159.6 63.9c-6 2.4-10 8.3-10 14.8v288c0 5.3 2.7 10.3 7 13.2 2.7 1.8 5.8 2.8 9 2.8 2 0 4-.4 6-1.2l154-61.6 153.8 61.5.3.1c3.8 1.5 8.1 1.5 11.9 0l.3-.1L502 446.9c6-2.5 10-8.3 10-14.9V240c0-8.8-7.2-16-16-16zM160 421.2L32 472.4V218.8l128-51.2v253.6z" fill="#49b462"/><path class="st1" d="M400 64c-26.5 0-48 21.5-48 48s21.5 48 48 48 48-21.5 48-48-21.5-48-48-48zm0 64c-8.8 0-16-7.2-16-16s7.2-16 16-16 16 7.2 16 16-7.2 16-16 16z"/><path class="st1" d="M400 0c-61.8 0-112 50.2-112 112 0 57.5 89.9 159.3 100.1 170.7 3 3.4 7.4 5.3 11.9 5.3s8.9-2 11.9-5.3C422.2 271.3 512 169.5 512 112 512 50.2 461.8 0 400 0zm0 247.6c-34.9-41.4-80-105.1-80-135.6 0-44.1 35.9-80 80-80s80 35.9 80 80c0 30.5-45 94.1-80 135.6z"/></svg>