<svg width="42" height="42" fill="none" xmlns="http://www.w3.org/2000/svg"><g clip-path="url(#clip0_155_1656)"><path d="M40.688 18.375c-.722 0-1.313.59-1.313 1.313v14.864l-10.5 4.2V24.938c0-.722-.59-1.313-1.312-1.313-.722 0-1.313.59-1.313 1.313v13.814l-10.5-4.2V13.749l6.079 2.436a1.312 1.312 0 10.976-2.436l-7.859-3.142-.024-.008a1.337 1.337 0 00-.977 0l-.024.008L.829 15.849a1.31 1.31 0 00-.82 1.214v23.625A1.316 1.316 0 001.32 42c.164 0 .328-.033.492-.098l12.633-5.053 12.616 5.045.025.008c.311.123.664.123.976 0l.025-.008L41.18 36.66c.492-.205.82-.68.82-1.222v-15.75c0-.722-.59-1.313-1.312-1.313zM13.125 34.552l-10.5 4.2V17.949l10.5-4.2v20.803z" fill="#49B462"/><path d="M32.813 5.25a3.939 3.939 0 000 7.875 3.939 3.939 0 000-7.875zm0 5.25c-.722 0-1.313-.59-1.313-1.313 0-.721.59-1.312 1.313-1.312.721 0 1.312.59 1.312 1.313 0 .721-.59 1.312-1.313 1.312z" fill="#F8DB3D"/><path d="M32.813 0c-5.07 0-9.188 4.118-9.188 9.188 0 4.716 7.375 13.067 8.211 14.002.246.28.607.435.977.435.369 0 .73-.164.976-.435C34.634 22.255 42 13.904 42 9.187 42 4.119 37.882 0 32.812 0zm0 20.31c-2.863-3.395-6.563-8.62-6.563-11.122a6.571 6.571 0 016.563-6.563 6.571 6.571 0 016.562 6.563c0 2.502-3.691 7.719-6.563 11.123z" fill="#F8DB3D"/></g><defs><clipPath id="clip0_155_1656"><path fill="#fff" d="M0 0h42v42H0z"/></clipPath></defs></svg>