<svg width="45" height="45" fill="none" xmlns="http://www.w3.org/2000/svg"><g clip-path="url(#clip0_155_1465)"><path d="M21.968 27.807c-3.429-1.905-7.524-6.285-8-9.904a4.044 4.044 0 011.238-3.81 4.059 4.059 0 012.952-1.332c2.286 0 4.095 2.285 4.19 2.476.191-.286 1.905-2.476 4.286-2.476 1.142 0 2.19.476 2.952 1.333a4.044 4.044 0 011.238 3.81c-.476 3.618-4.571 7.998-8 9.903l-.38.19-.476-.19z" fill="#F8DB3D"/><path d="M26.062 37.044c-9.904 2-19.522-4.38-21.521-14.19-2-9.808 4.38-19.52 14.189-21.52 9.808-2 19.522 4.38 21.521 14.188.286 1.238.381 2.381.381 3.619 0 5.523-2.476 10.856-6.856 14.284v10.57l-7.714-6.951zm-7.904-24.283c-1.142 0-2.19.476-2.952 1.333a4.044 4.044 0 00-1.238 3.809c.572 4.095 5.428 8.57 8.476 10.19 3.142-1.62 7.904-6.095 8.475-10.19a4.044 4.044 0 00-1.238-3.81 4.058 4.058 0 00-2.952-1.332c-1.333.095-2.666.762-3.619 1.714l-.666.666-.667-.666c-.952-.952-2.19-1.62-3.619-1.714z" fill="#fff"/><path d="M22.444 0C11.874 0 3.303 8.666 3.303 19.236s8.666 19.141 19.236 19.141c1.047 0 2.19-.095 3.238-.285l7.428 6.666c.38.38.952.285 1.333-.096.19-.19.286-.38.286-.666V33.9c8.094-6.76 9.237-18.855 2.38-27.045C33.49 2.476 28.157 0 22.444 0zm10.76 32.663c-.19.19-.38.477-.38.762v8.476l-6.095-5.524a.864.864 0 00-.667-.285h-.19C16.54 37.996 7.398 31.997 5.493 22.569 3.588 13.142 9.588 4.095 19.015 2.19 28.444.286 37.49 6.285 39.395 15.713c.19 1.143.38 2.285.38 3.523 0 5.143-2.476 10.19-6.57 13.427z" fill="#49B462"/><path d="M26.729 11.808c-1.62.096-3.143.857-4.286 2-1.142-1.238-2.666-1.904-4.285-2a4.92 4.92 0 00-3.619 1.62c-1.238 1.142-1.809 2.856-1.523 4.57.666 4.476 5.618 9.142 9.046 10.856.286.096.572.096.857 0 3.334-1.714 8.38-6.38 9.047-10.856.286-1.714-.286-3.428-1.523-4.57-1.048-.953-2.381-1.524-3.714-1.62zm3.237 5.904c-.476 3.238-4.285 7.333-7.523 9.238-3.333-1.81-7.142-6-7.523-9.238-.19-1.047.095-2.19.953-2.952.57-.666 1.428-1.047 2.38-1.047 1.905 0 3.428 2.095 3.428 2.095.286.476.858.571 1.334.19.095-.095.19-.095.19-.19 0 0 1.524-2.095 3.524-2.095.857 0 1.714.476 2.38 1.047.762.762 1.143 1.905.857 2.952z" fill="#49B462"/></g><defs><clipPath id="clip0_155_1465"><path fill="#fff" d="M0 0h45v45H0z"/></clipPath></defs></svg>