<svg width="116" height="58" fill="none" xmlns="http://www.w3.org/2000/svg"><path d="M58.745 50.8h-.01l-.01.002c-14.777 1.615-28.382.785-38.424-1.985-5.023-1.385-9.1-3.242-11.986-5.475-2.878-2.227-4.515-4.78-4.822-7.591-.308-2.817.73-5.733 3.045-8.628 2.318-2.9 5.874-5.718 10.449-8.28 9.146-5.122 22.188-9.121 36.952-10.735 14.76-1.614 28.322-.484 38.676 2.62 10.41 3.12 17.295 8.14 19.237 14.085.685 2.605.108 5.269-1.782 7.918-1.913 2.683-5.16 5.324-9.723 7.747-9.121 4.844-23.256 8.686-41.602 10.322z" stroke="url(#paint0_linear_436_964)" stroke-width="2"/><path d="M55.819 48.574h0-.01c-14.095 1.541-27.087.84-36.693-1.668-4.804-1.254-8.733-2.953-11.528-5.027-2.792-2.071-4.419-4.488-4.714-7.19-.296-2.705.76-5.477 3.022-8.191 2.263-2.716 5.708-5.338 10.1-7.716 8.781-4.752 21.259-8.474 35.348-10.014 14.09-1.54 27.076-.602 36.677 2.14 4.802 1.373 8.732 3.19 11.528 5.352 2.796 2.161 4.425 4.64 4.721 7.345.599 5.483-2.675 10.917-10.592 15.413-7.916 4.495-20.376 7.983-37.86 9.556z" stroke="#F8DB3D"/><defs><linearGradient id="paint0_linear_436_964" x1="75.681" y1="19.537" x2="141.677" y2="36.253" gradientUnits="userSpaceOnUse"><stop stop-color="#FFE975"/><stop offset="1" stop-color="#FFE975" stop-opacity="0"/></linearGradient></defs></svg>