<svg width="41" height="41" fill="none" xmlns="http://www.w3.org/2000/svg"><path d="M30.378 17.556c-.1.175-.206.346-.317.516a.665.665 0 001.11.732c.128-.193.247-.389.361-.587a.665.665 0 00-1.154-.66zm1.897-5.253c-.368 0-.665.32-.666.688 0 .186-.006.372-.017.558a.665.665 0 101.327.082c.014-.212.02-.425.02-.688 0-.366-.297-.64-.664-.64zm-.001-5.201a.665.665 0 00-.665.665v.648a.665.665 0 001.33 0v-.648a.665.665 0 00-.665-.665zm0 2.588a.665.665 0 00-.665.665v.647a.665.665 0 001.33 0v-.647a.665.665 0 00-.665-.665zm-7.206 13.144l-.495.418a.665.665 0 00.859 1.016l.494-.418a.665.665 0 10-.858-1.016zm6.472-6.084a.666.666 0 00.844-.415c.074-.218.14-.438.2-.659a.665.665 0 10-1.283-.348 9.534 9.534 0 01-.177.579.666.666 0 00.416.843zm-4.494 4.414l-.495.418a.665.665 0 00.858 1.016l.495-.418a.666.666 0 00-.858-1.016zm1.882-1.67c-.14.146-.284.29-.434.43a.664.664 0 10.908.97c.168-.156.33-.316.486-.48a.665.665 0 10-.96-.92zm2.8-13.292a.665.665 0 001.211-.38v-.333a.665.665 0 00-.855-.637 8.417 8.417 0 01-.293.081.665.665 0 00-.063 1.269zm-4.858.207c.213.036.432.067.656.093a.665.665 0 00.152-1.322c-.2-.022-.395-.05-.585-.083a.665.665 0 00-.224 1.312zm2.609.172h.022c.223-.007.442-.02.658-.037a.665.665 0 00-.108-1.325 12.09 12.09 0 01-.593.033.665.665 0 00.02 1.33zm-5.189-1c.196.105.407.203.633.294a.665.665 0 00.497-1.233 5.397 5.397 0 01-.503-.234.665.665 0 10-.626 1.173zm-1.253-1.266c.076.022.153.03.23.024a.663.663 0 00.229-.024.665.665 0 00.455-.822.514.514 0 01-.02-.143.665.665 0 00-1.33 0 .514.514 0 01-.02.143.665.665 0 00.456.822zm-6.651 2.23c.216.017.435.03.658.037h.021a.665.665 0 00.02-1.33 12.03 12.03 0 01-.592-.032.656.656 0 00-.716.609.665.665 0 00.609.716zm4.986-.626a.662.662 0 00.25-.05c.226-.09.438-.19.633-.294a.666.666 0 00-.63-1.172 5.023 5.023 0 01-.502.234.665.665 0 00.25 1.282zm-2.43.586a.701.701 0 00.076-.004c.225-.026.444-.058.658-.094a.665.665 0 00-.226-1.31c-.19.031-.385.06-.584.082a.666.666 0 00.076 1.326zm-4.684-.018a.664.664 0 00.546-.285.664.664 0 00-.063-1.268 7.78 7.78 0 01-.293-.082.667.667 0 00-.855.637v.333c0 .367.298.665.665.665zm3.145 12.79a.665.665 0 00-.988.89c.149.165.304.327.464.486a.664.664 0 00.941-.006.665.665 0 00-.006-.94 9.996 9.996 0 01-.411-.43zm-3.105-5.189a.665.665 0 00.634-.694 8.53 8.53 0 01-.01-.402v-.202a.665.665 0 00-1.33 0v.202c0 .154.004.308.011.462.016.357.31.635.664.635h.03zm-.04-2.533a.665.665 0 00.666-.665v-.634a.665.665 0 00-1.33 0v.634c0 .367.297.665.665.665zm1.086 4.155a8.942 8.942 0 01-.159-.568.666.666 0 00-1.292.318c.054.219.115.436.183.651a.665.665 0 001.268-.4zm.424 3.16a.665.665 0 00.564-1.016 9.954 9.954 0 01-.297-.513.665.665 0 10-1.17.633c.107.196.219.39.338.582a.664.664 0 00.565.314zm-1.51-9.85a.665.665 0 00.666-.664v-.634a.665.665 0 00-1.33 0v.634c0 .367.297.665.665.665z" fill="#F8DB3D"/><path d="M39.94 27.822a2.324 2.324 0 00.646-2.678 2.33 2.33 0 00-3.045-1.236l-9.752 4.02h-2.705l5.484-4.633c3.269-2.76 5.143-6.662 5.143-10.702V2.782a.665.665 0 00-.854-.637c-1.187.353-2.577.54-4.018.54-3.592 0-6.168-1.14-6.769-2.21A.925.925 0 0023.266 0a.925.925 0 00-.804.475c-.6 1.07-3.176 2.21-6.769 2.21-1.441 0-2.83-.187-4.017-.54a.667.667 0 00-.855.637v9.81c0 3.348 1.279 6.571 3.59 9.169l-8.445 6.193-.126-.176a.666.666 0 00-.928-.15L.596 30.74a.665.665 0 00-.15.928l6.53 9.057a.665.665 0 00.928.15l4.315-3.11a.665.665 0 00.15-.929l-.452-.626 4.556 1.012a.69.69 0 00.144.016h5.051c2.885 0 5.714-.988 7.97-2.784l1.677-1.077 7.356-1.649a2.311 2.311 0 001.504-.955 2.31 2.31 0 00-.235-2.95zm-20.853-1.89l2.361 1.996h-4.987l1.197-1.995h1.429zM12.15 3.642c1.098.245 2.305.373 3.543.373 3.396 0 6.316-.94 7.572-2.388 1.257 1.448 4.177 2.388 7.573 2.388 1.237 0 2.445-.128 3.543-.373v8.952c0 3.648-1.703 7.178-4.672 9.686l-6.444 5.443-2.286-1.931c.463-.125.892-.33 1.273-.602.045.017.092.022.139.029.037.113.093.22.191.302l.254.215a.663.663 0 00.858 0l.255-.215a.665.665 0 00-.684-1.122.642.642 0 00-.157-.038 3.966 3.966 0 00.822-2.417.665.665 0 00-.665-.665H19.57c-.033-.047-.061-.096-.107-.135l-.253-.214a.665.665 0 00-.938.078.652.652 0 00-.13.271h-2.379c-2.326-2.418-3.61-5.494-3.61-8.685V3.64zM7.665 39.407l-5.751-7.978 2.763-1.992c.027.095.07.186.139.262l4.072 4.582 2.014 2.793-3.236 2.333zm21.226-6.054a.777.777 0 00-.055.04 11.515 11.515 0 01-7.168 2.514H16.69l-5.704-1.268-1.06-1.193-3.182-4.413 8.76-6.425h7.013a2.665 2.665 0 01-2.575 1.995h-2.66a.665.665 0 00-.57.322l-1.996 3.325a.664.664 0 00.57 1.008h12.635a.673.673 0 00.253-.05l9.88-4.074a1 1 0 011.314 1.293.99.99 0 01-.535.544.682.682 0 00-.1.052l-.351.226-.025.016-9.466 6.088zm10.195-3.345a1.016 1.016 0 01-.675.415l-3.845.861 4.21-2.706a.993.993 0 01.31 1.43z" fill="#49B462"/><path d="M9.302 36.572a1.33 1.33 0 11-2.66 0 1.33 1.33 0 012.66 0z" fill="#49B462"/><path d="M6.172 3.795a.663.663 0 00.94 0l.528-.527.527.527a.664.664 0 10.94-.94l-.527-.528.527-.527a.665.665 0 10-.94-.94l-.527.527L7.113.86a.665.665 0 10-.94.94l.527.527-.527.528c-.26.26-.26.68 0 .94zm29.923 17.953a.663.663 0 00.94 0l.528-.527.527.527a.664.664 0 00.94 0c.26-.26.26-.68 0-.94l-.527-.527.527-.527a.665.665 0 00-.94-.94l-.527.527-.528-.528a.665.665 0 10-.94.94l.528.528-.528.527c-.26.26-.26.68 0 .94z" fill="#F8DB3D"/></svg>