<svg width="511" height="511" fill="none" xmlns="http://www.w3.org/2000/svg"><g clip-path="url(#clip0)"><path d="M1.332 196.053a27.105 27.105 0 0123.38-18.675l147.489-13.392L230.522 27.48c4.3-10.004 14.094-16.48 24.975-16.48 10.882 0 20.675 6.476 24.976 16.503l58.321 136.483 147.512 13.392a27.157 27.157 0 0123.357 18.675c3.364 10.347.257 21.696-7.942 28.85l-111.484 97.772 32.874 144.811c2.406 10.647-1.727 21.653-10.561 28.039-4.749 3.431-10.305 5.178-15.907 5.178-4.831 0-9.622-1.302-13.923-3.876l-127.223-76.036-127.176 76.036c-9.306 5.599-21.037 5.088-29.852-1.302a27.17 27.17 0 01-10.562-28.039l32.874-144.811L9.297 224.923a27.172 27.172 0 01-7.965-28.87z" fill="#FFC107"/><path d="M255.497 163.95V10.964c10.882 0 20.675 6.476 24.976 16.504l58.321 136.482 147.512 13.392a27.157 27.157 0 0123.357 18.675c3.364 10.347.257 21.697-7.942 28.851L390.237 322.64l32.874 144.81c2.406 10.647-1.727 21.653-10.561 28.04-4.749 3.43-10.305 5.177-15.907 5.177-4.831 0-9.622-1.302-13.923-3.875l-127.223-76.037V163.95z" fill="#E5E5E5"/></g><defs><clipPath id="clip0"><path fill="#fff" transform="matrix(-1 0 0 1 511 0)" d="M0 0h511v511H0z"/></clipPath></defs></svg>