<svg width="511" height="511" fill="none" xmlns="http://www.w3.org/2000/svg"><g clip-path="url(#clip0)"><path d="M509.668 196.017a27.107 27.107 0 00-23.381-18.675L338.799 163.95 280.478 27.444c-4.3-10.004-14.094-16.48-24.975-16.48-10.882 0-20.675 6.476-24.976 16.504L172.206 163.95 24.695 177.342a27.156 27.156 0 00-23.358 18.675c-3.364 10.347-.257 21.697 7.942 28.851l111.484 97.772-32.874 144.81c-2.406 10.647 1.727 21.654 10.562 28.04 4.748 3.431 10.304 5.177 15.906 5.177 4.831 0 9.622-1.302 13.923-3.875l127.223-76.037 127.176 76.037c9.306 5.598 21.037 5.088 29.852-1.302a27.17 27.17 0 0010.562-28.04l-32.874-144.81 111.484-97.753a27.17 27.17 0 007.965-28.87z" fill="#E5E5E5"/></g><defs><clipPath id="clip0"><path fill="#fff" d="M0 0h511v511H0z"/></clipPath></defs></svg>