<svg width="39" height="24" fill="none" xmlns="http://www.w3.org/2000/svg"><g clip-path="url(#clip0_401_974)"><path fill-rule="evenodd" clip-rule="evenodd" d="M38.104 19.532a18.93 18.93 0 00-3.505-4.838 22.454 22.454 0 00-1.48-1.516l-.625-.549a47.01 47.01 0 004.935-8.451v-.243a3.04 3.04 0 00-.345-2.709 3.28 3.28 0 00-1.222-.94A3.348 3.348 0 0034.336 0h-3.603a3.791 3.791 0 00-2.172.58 3.61 3.61 0 00-1.43 1.759 27.939 27.939 0 01-2.979 5.274V3.355a3.624 3.624 0 00-.641-2.242 3.037 3.037 0 00-1.13-.856A3.097 3.097 0 0020.977 0h-5.808a3.013 3.013 0 00-2.08.763 2.897 2.897 0 00-.963 1.963v.129c.02.625.239 1.228.625 1.726.094.141.199.276.312.403l.148.258c.263.363.401.798.395 1.242v2.371a32.079 32.079 0 01-2.879-6.097A4.664 4.664 0 009.559.92 3.614 3.614 0 007.107.065H3.34a3.484 3.484 0 00-1.367.219 3.431 3.431 0 00-1.167.732c-.521.56-.81 1.29-.806 2.049V3.5a31.077 31.077 0 006.252 12.902 16.52 16.52 0 005.605 5.346A16.907 16.907 0 0019.332 24h.148a6.206 6.206 0 003.29-.71 3.13 3.13 0 001.036-1.19 3.06 3.06 0 00.313-1.535v-1.839c.33.258.74.613 1.234 1.08a24.88 24.88 0 011.464 1.533l.214.226c.33.354.642.693.922.967.384.409.834.752 1.332 1.017a4.13 4.13 0 001.892.451h3.785a3.602 3.602 0 001.477-.219 3.546 3.546 0 001.254-.797c.346-.428.576-.935.669-1.474a3.165 3.165 0 00-.143-1.607v-.145l-.115-.226zm-9.41.226c-.429-.451-.939-1-1.646-1.613-2.221-2.096-3.29-2.467-3.998-2.467a1.375 1.375 0 00-1.119.387 1.15 1.15 0 00-.23.564 2.987 2.987 0 000 .71v3.226c0 .42 0 .58-.263.71a3.851 3.851 0 01-1.991.306 14.42 14.42 0 01-6.343-1.919 14.09 14.09 0 01-4.763-4.533A28.791 28.791 0 012.468 3.032a.554.554 0 01.132-.419s.263-.193.74-.193h3.75c.261-.012.518.068.724.225.271.277.47.615.576.984a33.131 33.131 0 003.29 6.968 15.677 15.677 0 001.646 2.21c.226.242.48.458.756.645a1.5 1.5 0 00.774.274 1.06 1.06 0 00.477-.097.767.767 0 00.411-.37c.185-.422.259-.883.214-1.34v-5.5a4.41 4.41 0 00-.889-2.58l-.246-.323-.099-.29a.781.781 0 01-.148-.355.53.53 0 01.18-.322.583.583 0 01.363-.13h5.857c.345 0 .46 0 .51.162a1.3 1.3 0 01.148.774v7.307c0 .87.411 1.451 1.004 1.451.592 0 1.184-.403 2.04-1.242a30.164 30.164 0 004.672-7.613c.084-.247.253-.457.477-.597.218-.144.479-.212.74-.193h3.785c.51 0 .674.129.74.21a.745.745 0 010 .596 45.69 45.69 0 01-4.936 8.387 2 2 0 00-.427.968c-.003.413.156.812.444 1.113.333.432.708.832 1.119 1.194.496.454.968.933 1.415 1.435a16.305 16.305 0 013.06 4.161c.131.42 0 .646 0 .759a1.11 1.11 0 01-.856.241H31.21a1.556 1.556 0 01-.74-.16 3.99 3.99 0 01-.74-.598c-.23-.225-.494-.5-.807-.855l-.23-.16z" fill="#49B462"/></g><defs><clipPath id="clip0_401_974"><path fill="#fff" d="M0 0h38.4v24H0z"/></clipPath></defs></svg>