<svg width="33" height="33" fill="none" xmlns="http://www.w3.org/2000/svg"><g clip-path="url(#clip0_602_589)" fill="#49B462"><path d="M23.921 19.737c-.401-.206-2.4-1.185-2.773-1.318-.372-.14-.644-.206-.913.206-.27.413-1.046 1.319-1.29 1.595-.235.272-.474.306-.876.103-2.386-1.193-3.952-2.129-5.524-4.829-.417-.718.416-.666 1.193-2.217.133-.272.066-.504-.037-.71-.103-.207-.913-2.203-1.252-3.017-.328-.792-.667-.681-.913-.696-.236-.015-.505-.015-.778-.015a1.5 1.5 0 00-1.082.505c-.372.409-1.422 1.392-1.422 3.388 0 1.997 1.455 3.93 1.654 4.203.206.272 2.861 4.368 6.938 6.132 2.578 1.112 3.588 1.208 4.877 1.016.784-.117 2.4-.98 2.736-1.933.335-.954.335-1.764.236-1.934-.1-.18-.372-.283-.774-.479z"/><path d="M31.718 10.106A16.478 16.478 0 0016.5 0h-.074A16.507 16.507 0 001.768 23.94v5.598a1.694 1.694 0 001.694 1.694h5.602A16.55 16.55 0 0016.426 33h.078c4.351.01 8.53-1.704 11.62-4.77a16.56 16.56 0 003.594-18.124zm-5.565 16.132A13.628 13.628 0 0116.5 30.2h-.063a13.75 13.75 0 01-6.375-1.602l-.31-.166H4.568v-5.186l-.166-.31A13.75 13.75 0 012.8 16.564c-.015-3.672 1.389-7.12 3.963-9.716A13.604 13.604 0 0116.442 2.8h.063a13.686 13.686 0 0113.704 13.764 13.648 13.648 0 01-4.055 9.675z"/></g><defs><clipPath id="clip0_602_589"><path fill="#fff" d="M0 0h33v33H0z"/></clipPath></defs></svg>