<svg width="25" height="25" fill="none" xmlns="http://www.w3.org/2000/svg"><g clip-path="url(#clip0_338_275)" fill="#377C4E"><path d="M17.898 14.855c-.293-.15-1.747-.863-2.018-.96-.27-.101-.468-.15-.664.15-.195.3-.76.96-.937 1.16-.172.199-.346.223-.638.076-1.735-.868-2.874-1.549-4.018-3.512-.302-.522.303-.485.868-1.613.097-.198.049-.366-.027-.516-.075-.15-.664-1.602-.91-2.194-.239-.576-.485-.496-.664-.506-.172-.011-.367-.011-.566-.011a1.09 1.09 0 00-.787.367c-.27.297-1.034 1.012-1.034 2.464s1.058 2.858 1.203 3.056c.15.199 2.08 3.177 5.046 4.46 1.875.81 2.609.879 3.546.74.57-.086 1.747-.713 1.99-1.407.244-.694.244-1.283.172-1.406-.072-.131-.27-.206-.563-.348z"/><path d="M23.568 7.85A11.984 11.984 0 0012.5.5h-.054a12.005 12.005 0 00-10.66 17.411v4.071a1.232 1.232 0 001.232 1.233h4.074a12.038 12.038 0 005.354 1.285h.057a11.957 11.957 0 008.45-3.468A12.045 12.045 0 0023.568 7.85zM19.52 19.582a9.911 9.911 0 01-7.02 2.883h-.046a10 10 0 01-4.636-1.166l-.225-.12H3.82v-3.772l-.12-.225a10 10 0 01-1.165-4.636A9.903 9.903 0 015.418 5.48a9.894 9.894 0 017.04-2.944h.045a9.953 9.953 0 019.966 10.01 9.926 9.926 0 01-2.949 7.036z"/></g><defs><clipPath id="clip0_338_275"><path fill="#fff" transform="translate(.5 .5)" d="M0 0h24v24H0z"/></clipPath></defs></svg>